<svg aria-hidden="true" style="position: absolute; width: 0; height: 0; overflow: hidden;" version="1.1" xmlns="http://www.w3.org/2000/svg" xmlns:xlink="http://www.w3.org/1999/xlink">
<defs>
<symbol id="icon-hotel-svgrepo-com-4-1" viewBox="0 0 32 32">
<path fill="#fadbbc" style="fill: var(--color1, #fadbbc)" d="M0.92 10.777l4.258 0.053s-0.018-2.508 0-2.695c0.018-0.185 0.168-0.242 0.407-0.242h2.88s1.053-4.93 7.668-4.895c6.27 0.033 7.473 4.84 7.473 4.84s2.805 0.037 2.99 0.037 0.277 0.148 0.277 0.352v2.565h4.195l-0.2 0.482-1.225 2.063-27.31-0.002-1.413-2.557z"></path>
<path fill="#b99277" style="fill: var(--color2, #b99277)" d="M5.15 12.925l-2.675 0.002s-1.133-1.85-1.232-1.995c-0.133-0.188-0.43-0.158-0.527-0.143-0.167 0.023-0.035 0.293 0.152 0.563s0.985 1.607 0.985 1.607v18.005h28.305l0.023-17.945s0.995-1.635 1.093-1.797 0.245-0.422 0.065-0.432c-0.195-0.010-0.42-0.045-0.613 0.258-0.22 0.348-1.145 1.79-1.145 1.79h-2.7v-2.795h-4.15s-0.148-5.71-6.787-5.67c-6.638 0.043-6.563 5.665-6.563 5.665h-4.195c0 0.002-0.035 2.838-0.035 2.887z"></path>
<path fill="#e2c090" style="fill: var(--color3, #e2c090)" d="M2.465 14.047h2.647v11.070l-2.67 0.025zM5.785 11.168v11.095l20.495-0.023v-11.025h-4.828s0.345-5.603-5.363-5.662c-5.918-0.065-5.477 5.57-5.477 5.57l-4.827 0.045z"></path>
<path fill="#fadbbc" style="fill: var(--color1, #fadbbc)" d="M10.613 11.123l-1.54 0.012v19.84h1.592c0.002 0-0.037-19.852-0.053-19.852zM21.453 11.215h1.598l-0.003 19.753h-1.668s0.113-19.843 0.073-19.753z"></path>
<path fill="#e2c090" style="fill: var(--color3, #e2c090)" d="M29.563 14.14h-2.58v10.975h2.555l0.025-10.975z"></path>
<path fill="#ffa828" style="fill: var(--color4, #ffa828)" d="M12.555 24.863l-0.008 6.188h7.003l0.008-6.378z"></path>
<path fill="#546f7a" style="fill: var(--color5, #546f7a)" d="M13.2 25.665v4.657h2.47v-4.642zM16.378 25.712h2.44l0.063 4.61h-2.485z"></path>
<path fill="#faddc3" style="fill: var(--color6, #faddc3)" d="M5.173 24.758c0 0.078 0.020 6.652 0.058 6.71s1.857 0.078 1.935 0c0.020-0.020 0-6.75 0-6.75l-1.992 0.040zM24.918 24.817s-0.073 6.36-0.020 6.518c0.020 0.058 1.832 0.108 1.935 0.038 0.058-0.038 0.058-6.575 0.058-6.575l-1.973 0.020z"></path>
<path fill="#2f7c31" style="fill: var(--color7, #2f7c31)" d="M28.448 29.233c-0.37-0.015-1.14-0.358-1.063-1.565 0.075-1.183 0.665-1.845 1.063-1.86s1.063 1.020 1.063 1.89c0 1.005-0.413 1.563-1.063 1.535zM3.667 25.823c-0.373 0.015-1.12 0.99-1.092 2.082 0.030 1.152 0.65 1.418 1.048 1.448s1.093-0.457 1.063-1.52-0.647-2.025-1.018-2.010z"></path>
<path fill="#e2c090" style="fill: var(--color3, #e2c090)" d="M2.74 29.16c-0.040 0.1 0.015 1.808 0.015 1.808l1.682-0.003s0.027-1.747 0.027-1.808c0.003-0.058-1.705-0.047-1.725 0.003zM27.545 29.085c-0.015-0.075 1.727-0.060 1.742-0.015 0.032 0.098-0.025 1.905-0.025 1.905h-1.712l-0.005-1.89z"></path>
<path fill="#af0c1a" style="fill: var(--color8, #af0c1a)" d="M4.855 22.977s0.018 1.465 0.030 1.707-0.027 0.473 0.515 0.477c0.532 0.005 21.172 0.010 21.44 0.010s0.57-0.152 0.595-0.535c0.025-0.38 0.012-1.607 0.012-1.607l-11.59-0.4-11.002 0.348z"></path>
<path fill="#fadbbc" style="fill: var(--color1, #fadbbc)" d="M27.448 23.030s0.012-0.55 0.012-0.72c0-0.172-0.152-0.305-0.593-0.315s-21.13-0.038-21.56-0.038-0.44 0.225-0.46 0.435c-0.020 0.21 0.005 0.585 0.005 0.585l22.595 0.052z"></path>
<path fill="#6c1507" style="fill: var(--color9, #6c1507)" d="M11.725 9.41h2.16v11.41h-2.16zM18.262 9.41h2.16v11.41h-2.16z"></path>
<path fill="#6c1507" style="fill: var(--color9, #6c1507)" d="M13.543 14.092h5v2.25h-5z"></path>
<path fill="#536f79" style="fill: var(--color10, #536f79)" d="M23.92 11.652h1.595v2.515h-1.595zM23.913 15.158h1.595v2.515h-1.595zM23.913 18.725h1.595v2.515h-1.595zM6.685 11.765h1.595v2.515h-1.595zM6.678 15.27h1.595v2.515h-1.595zM6.678 18.837h1.595v2.515h-1.595zM2.978 15.29h1.595v2.515h-1.595zM2.978 18.855h1.595v2.515h-1.595zM27.485 15.168h1.595v2.515h-1.595zM27.485 18.735h1.595v2.515h-1.595z"></path>
</symbol>
<symbol id="icon-checkmark" viewBox="0 0 32 32">
<path d="M27 4l-15 15-7-7-5 5 12 12 20-20z"></path>
</symbol>
</defs>
</svg>
